<svg xmlns="http://www.w3.org/2000/svg" xmlns:xlink="http://www.w3.org/1999/xlink" width="256" zoomAndPan="magnify" viewBox="0 0 192 74.999997" height="100" preserveAspectRatio="xMidYMid meet" version="1.0"><defs><g/><clipPath id="fe3dcdb48a"><path d="M 0 6.152344 L 89.25 6.152344 L 89.25 69.152344 L 0 69.152344 Z M 0 6.152344 " clip-rule="nonzero"/></clipPath></defs><rect x="-19.2" width="230.4" fill="#ffffff" y="-7.5" height="89.999996" fill-opacity="1"/><rect x="-19.2" width="230.4" fill="#ffffff" y="-7.5" height="89.999996" fill-opacity="1"/><rect x="-19.2" width="230.4" fill="#005243" y="-7.5" height="89.999996" fill-opacity="1"/><g clip-path="url(#fe3dcdb48a)"><path fill="#ffffff" d="M 75.976562 27.773438 C 76.914062 28.160156 77.886719 28.460938 78.871094 28.667969 L 78.871094 36.222656 L 75.976562 37.371094 Z M 70.078125 39.707031 L 70.078125 36.492188 L 74.101562 36.492188 L 74.101562 38.113281 Z M 65.789062 41.40625 L 65.789062 29.734375 C 66.628906 29.441406 67.433594 29.097656 68.203125 28.710938 L 68.203125 40.449219 Z M 36.316406 30.253906 C 37.789062 31.3125 39.25 32.15625 40.679688 32.816406 L 40.679688 51.355469 L 36.316406 53.085938 Z M 29.273438 55.875 L 29.273438 50.207031 L 33.191406 50.207031 L 33.191406 54.320312 Z M 23.816406 50.207031 L 28.335938 50.207031 L 28.335938 56.246094 L 23.816406 58.035156 Z M 14.703125 61.648438 L 14.703125 58.167969 C 15.894531 57.253906 17.023438 56.351562 18.066406 55.476562 C 19 54.699219 19.871094 53.9375 20.691406 53.1875 L 20.691406 59.273438 Z M 14.703125 48.324219 C 18.035156 44.519531 19.730469 40.308594 20.691406 35.5625 L 20.691406 50.613281 C 19.542969 51.71875 18.277344 52.851562 16.867188 54.03125 C 16.179688 54.601562 15.457031 55.191406 14.703125 55.785156 Z M 33.191406 15.144531 C 32.902344 17.6875 32.695312 20.042969 32.503906 22.230469 C 32.484375 22.484375 32.460938 22.734375 32.441406 22.984375 L 30.929688 22.984375 C 28.808594 20.414062 26.707031 17.25 24.6875 13.371094 L 33.191406 13.371094 Z M 29.273438 43.066406 C 30.390625 41.1875 31.226562 39.332031 31.871094 37.457031 L 33.191406 37.457031 L 33.191406 47.066406 L 29.273438 47.066406 Z M 28.335938 44.546875 L 28.335938 47.066406 L 26.5 47.066406 C 27.175781 46.21875 27.78125 45.378906 28.335938 44.546875 Z M 23.816406 22.984375 L 23.816406 15.066406 C 25.476562 18.136719 27.1875 20.753906 28.921875 22.984375 Z M 24.074219 47.066406 L 23.816406 47.066406 L 23.816406 37.457031 L 29.890625 37.457031 C 28.71875 40.640625 26.929688 43.746094 24.074219 47.066406 Z M 32.101562 26.628906 C 31.820312 29.371094 31.460938 31.894531 30.851562 34.316406 L 23.816406 34.316406 L 23.816406 26.121094 L 31.617188 26.121094 C 31.777344 26.292969 31.941406 26.464844 32.101562 26.628906 Z M 33.191406 32.382812 L 33.191406 34.316406 L 32.78125 34.316406 C 32.933594 33.679688 33.066406 33.035156 33.191406 32.382812 Z M 40.679688 19.839844 L 40.679688 31.066406 C 39.25 30.351562 37.789062 29.4375 36.316406 28.289062 L 36.316406 12.644531 C 37.726562 15.433594 39.191406 17.8125 40.679688 19.839844 Z M 47.511719 26.816406 L 47.511719 33.199219 C 45.566406 32.9375 43.476562 32.378906 41.304688 31.375 L 41.304688 20.667969 C 43.355469 23.316406 45.449219 25.320312 47.511719 26.816406 Z M 59.40625 30.847656 C 59.742188 30.847656 60.074219 30.824219 60.40625 30.808594 C 58.785156 31.660156 57.003906 32.347656 55.125 32.796875 L 55.125 30.359375 C 56.621094 30.703125 58.042969 30.84375 59.359375 30.84375 C 59.375 30.847656 59.390625 30.847656 59.40625 30.847656 Z M 62.039062 31.710938 C 62.859375 31.234375 63.628906 30.71875 64.351562 30.175781 C 64.625 30.101562 64.898438 30.027344 65.164062 29.945312 L 65.164062 41.652344 L 62.039062 42.890625 Z M 58.875 33.253906 C 59.757812 32.902344 60.605469 32.503906 61.417969 32.066406 L 61.417969 43.136719 L 58.875 44.144531 Z M 55.125 34.421875 C 56.199219 34.183594 57.246094 33.878906 58.25 33.507812 L 58.25 44.394531 L 55.125 45.632812 Z M 51.886719 34.894531 C 52.773438 34.832031 53.644531 34.703125 54.5 34.539062 L 54.5 45.878906 L 51.886719 46.914062 Z M 50.289062 33.386719 C 50.273438 33.386719 50.257812 33.386719 50.242188 33.386719 C 49.566406 33.386719 48.859375 33.347656 48.136719 33.273438 L 48.136719 27.253906 C 50.324219 28.738281 52.472656 29.664062 54.5 30.203125 L 54.5 32.933594 C 53.136719 33.222656 51.726562 33.386719 50.289062 33.386719 Z M 48.136719 34.851562 C 48.859375 34.917969 49.5625 34.957031 50.238281 34.957031 C 50.257812 34.957031 50.273438 34.957031 50.292969 34.957031 C 50.617188 34.957031 50.9375 34.933594 51.261719 34.917969 L 51.261719 47.164062 L 48.136719 48.398438 Z M 44.429688 49.867188 L 41.304688 51.105469 L 41.304688 33.089844 C 42.367188 33.546875 43.414062 33.90625 44.429688 34.179688 Z M 45.054688 34.335938 C 45.894531 34.539062 46.714844 34.683594 47.511719 34.78125 L 47.511719 48.648438 L 45.054688 49.621094 Z M 68.203125 26.378906 L 68.203125 26.921875 C 67.953125 27.058594 67.695312 27.195312 67.433594 27.324219 C 67.707031 27.011719 67.964844 26.695312 68.203125 26.378906 Z M 70.078125 31.492188 L 74.101562 31.492188 L 74.101562 34.609375 L 70.078125 34.609375 Z M 70.960938 27.046875 L 74.101562 27.046875 L 74.101562 29.609375 L 70.078125 29.609375 L 70.078125 27.644531 C 70.378906 27.453125 70.675781 27.253906 70.960938 27.046875 Z M 72.078125 24.035156 C 71.53125 23.449219 71.035156 22.789062 70.609375 22.050781 L 73.714844 22.050781 C 73.273438 22.722656 72.722656 23.390625 72.078125 24.035156 Z M 70.078125 25.164062 L 70.078125 22.96875 C 70.476562 23.59375 70.917969 24.160156 71.402344 24.675781 C 71.214844 24.84375 71.023438 25.003906 70.824219 25.164062 Z M 74.101562 25.164062 L 73.308594 25.164062 C 73.28125 25.144531 73.253906 25.128906 73.230469 25.105469 C 73.539062 24.796875 73.832031 24.476562 74.101562 24.15625 Z M 78.5625 27.636719 C 77.679688 27.421875 76.808594 27.132812 75.976562 26.761719 L 75.976562 24.453125 C 76.640625 25.734375 77.5 26.796875 78.5625 27.636719 Z M 80.878906 28.988281 C 81.425781 29.21875 82.003906 29.417969 82.621094 29.574219 L 82.621094 34.734375 L 79.496094 35.972656 L 79.496094 28.789062 C 79.957031 28.871094 80.417969 28.941406 80.878906 28.988281 Z M 85.703125 34.65625 L 83.246094 34.65625 L 83.246094 29.722656 C 84.015625 29.882812 84.832031 29.992188 85.703125 30.046875 Z M 86.328125 34.65625 L 86.328125 30.070312 C 86.585938 30.082031 86.84375 30.09375 87.113281 30.09375 C 87.796875 30.09375 88.511719 30.066406 89.253906 30.007812 L 89.179688 29.070312 C 87.621094 29.191406 86.203125 29.171875 84.910156 29.023438 C 85.910156 28.9375 86.855469 28.789062 87.703125 28.582031 L 87.480469 27.667969 C 85.710938 28.101562 83.503906 28.292969 81.242188 28.082031 C 78.621094 26.949219 76.875 24.902344 75.976562 21.917969 L 75.976562 18.917969 L 74.101562 18.917969 L 74.101562 20.164062 L 70.078125 20.164062 L 70.078125 18.917969 L 68.203125 18.917969 L 68.203125 23.410156 C 67.324219 25.246094 65.726562 27.113281 63.628906 28.734375 C 62.273438 29.074219 60.855469 29.277344 59.402344 29.277344 C 59.390625 29.277344 59.375 29.277344 59.363281 29.277344 C 52.957031 29.257812 43.785156 25.707031 36.316406 9.003906 L 36.316406 6.152344 L 33.191406 6.152344 L 33.191406 10.230469 L 23.816406 10.230469 L 23.816406 6.152344 L 20.691406 6.152344 L 20.691406 15.957031 C 20.511719 18.128906 20.375 20.203125 20.246094 22.144531 C 19.316406 36.304688 18.699219 45.65625 5.285156 53.425781 L 6.21875 55.058594 C 9.335938 53.253906 11.800781 51.355469 13.765625 49.339844 L 13.765625 56.515625 C 13.25 56.914062 12.726562 57.3125 12.1875 57.71875 L 13.304688 59.230469 C 13.460938 59.113281 13.609375 58.996094 13.765625 58.878906 L 13.765625 62.019531 L 0 67.472656 L 18.9375 67.472656 L 20.691406 66.652344 L 20.691406 69.148438 L 23.816406 69.148438 L 23.816406 65.195312 L 33.191406 60.816406 L 33.191406 69.148438 L 36.316406 69.148438 L 36.316406 59.359375 L 68.203125 44.472656 L 68.203125 48.636719 L 70.078125 48.636719 L 70.078125 43.597656 L 74.101562 41.71875 L 74.101562 48.636719 L 75.976562 48.636719 L 75.976562 40.84375 L 89.226562 34.65625 L 86.328125 34.65625 " fill-opacity="1" fill-rule="nonzero"/></g><g fill="#ffffff" fill-opacity="1"><g transform="translate(91.065385, 40.257751)"><g><path d="M 15.089844 -12.046875 C 15.089844 -12.941406 14.75 -13.769531 14.113281 -14.410156 C 13.472656 -15.046875 12.644531 -15.410156 11.75 -15.410156 L 1.105469 -15.410156 C 0.851562 -15.410156 0.636719 -15.199219 0.636719 -14.941406 C 0.636719 -14.6875 0.851562 -14.472656 1.105469 -14.472656 L 2.703125 -14.472656 L 2.703125 -0.9375 L 1.105469 -0.9375 C 0.851562 -0.9375 0.636719 -0.722656 0.636719 -0.46875 C 0.636719 -0.210938 0.851562 0 1.105469 0 L 12.535156 0 C 14.6875 0 16.433594 -1.722656 16.433594 -3.851562 L 16.433594 -4.894531 C 16.433594 -5.9375 16.027344 -6.917969 15.28125 -7.640625 C 14.855469 -8.066406 14.367188 -8.386719 13.8125 -8.578125 C 14.601562 -9.175781 15.089844 -10.109375 15.089844 -11.175781 Z M 3.640625 -14.472656 L 5.832031 -14.472656 L 5.832031 -8.789062 L 3.640625 -8.789062 Z M 6.769531 -14.472656 L 8.554688 -14.472656 C 9.195312 -14.472656 9.832031 -14.21875 10.300781 -13.75 C 10.792969 -13.28125 11.046875 -12.6875 11.046875 -12.046875 L 11.046875 -11.175781 C 11.046875 -9.875 9.898438 -8.789062 8.554688 -8.789062 L 6.769531 -8.789062 Z M 14.15625 -11.175781 C 14.15625 -9.855469 13.070312 -8.789062 11.75 -8.789062 L 10.917969 -8.789062 C 10.941406 -8.789062 10.941406 -8.8125 10.960938 -8.8125 C 11.621094 -9.449219 11.984375 -10.28125 11.984375 -11.175781 L 11.984375 -12.046875 C 11.984375 -12.984375 11.558594 -13.855469 10.898438 -14.472656 L 11.75 -14.472656 C 12.386719 -14.472656 12.984375 -14.21875 13.453125 -13.75 C 13.898438 -13.304688 14.15625 -12.6875 14.15625 -12.046875 Z M 5.832031 -0.9375 L 3.640625 -0.9375 L 3.640625 -7.855469 L 5.832031 -7.855469 Z M 6.769531 -0.9375 L 6.769531 -7.855469 L 9.40625 -7.855469 C 10.195312 -7.855469 10.941406 -7.554688 11.492188 -6.980469 C 12.046875 -6.429688 12.367188 -5.683594 12.367188 -4.894531 L 12.367188 -3.851562 C 12.367188 -2.257812 11.046875 -0.9375 9.40625 -0.9375 Z M 15.496094 -3.851562 C 15.496094 -2.257812 14.15625 -0.9375 12.535156 -0.9375 L 11.941406 -0.9375 C 12.769531 -1.640625 13.304688 -2.703125 13.304688 -3.851562 L 13.304688 -4.894531 C 13.304688 -5.9375 12.898438 -6.917969 12.152344 -7.640625 C 12.089844 -7.726562 12.003906 -7.789062 11.941406 -7.855469 L 12.535156 -7.855469 C 13.324219 -7.855469 14.070312 -7.554688 14.621094 -6.980469 C 15.175781 -6.429688 15.496094 -5.683594 15.496094 -4.894531 Z M 15.496094 -3.851562 "/></g></g></g><g fill="#ffffff" fill-opacity="1"><g transform="translate(108.899169, 40.257751)"><g><path d="M 15.558594 -11.515625 C 15.558594 -12.558594 15.15625 -13.539062 14.429688 -14.261719 C 13.707031 -15.007812 12.75 -15.410156 11.707031 -15.410156 L 1.105469 -15.410156 C 0.851562 -15.410156 0.636719 -15.199219 0.636719 -14.941406 L 0.636719 -13.003906 C 0.636719 -12.75 0.851562 -12.535156 1.105469 -12.535156 C 1.363281 -12.535156 1.574219 -12.75 1.574219 -13.003906 L 1.574219 -14.472656 L 3.511719 -14.472656 L 3.511719 -6.535156 L 2 -6.535156 C 1.746094 -6.535156 1.53125 -6.320312 1.53125 -6.066406 C 1.53125 -5.8125 1.746094 -5.597656 2 -5.597656 L 3.511719 -5.597656 L 3.511719 -0.9375 L 1.914062 -0.9375 C 1.660156 -0.9375 1.449219 -0.722656 1.449219 -0.46875 C 1.449219 -0.210938 1.660156 0 1.914062 0 L 9.109375 0 C 9.367188 0 9.578125 -0.210938 9.578125 -0.46875 C 9.578125 -0.722656 9.367188 -0.9375 9.109375 -0.9375 L 7.554688 -0.9375 L 7.554688 -5.597656 L 8.75 -5.597656 C 9.195312 -5.597656 10.515625 -5.578125 11.066406 -4.851562 C 11.410156 -4.40625 11.472656 -3.746094 11.472656 -2.875 C 11.472656 -2.105469 11.515625 -1.488281 11.769531 -0.980469 C 12.109375 -0.339844 12.726562 0 13.601562 0 L 16.816406 0 C 17.070312 0 17.285156 -0.210938 17.285156 -0.46875 C 17.285156 -0.722656 17.070312 -0.9375 16.816406 -0.9375 C 16.15625 -0.9375 15.941406 -1.191406 15.835938 -1.40625 C 15.644531 -1.765625 15.625 -2.320312 15.625 -2.875 C 15.625 -3.9375 15.515625 -4.769531 15.027344 -5.425781 C 14.75 -5.789062 14.347656 -6.066406 13.855469 -6.238281 C 14.070312 -6.386719 14.261719 -6.535156 14.429688 -6.726562 C 15.15625 -7.449219 15.558594 -8.40625 15.558594 -9.449219 Z M 6.621094 -14.472656 L 6.621094 -6.535156 L 4.449219 -6.535156 L 4.449219 -14.472656 Z M 7.554688 -6.535156 L 7.554688 -14.472656 L 8.597656 -14.472656 C 10.21875 -14.472656 11.535156 -13.152344 11.535156 -11.515625 L 11.535156 -9.449219 C 11.535156 -8.664062 11.238281 -7.9375 10.683594 -7.386719 C 10.109375 -6.832031 9.386719 -6.535156 8.597656 -6.535156 Z M 11.132812 -6.535156 L 11.324219 -6.726562 C 12.070312 -7.449219 12.472656 -8.40625 12.472656 -9.449219 L 12.472656 -11.515625 C 12.472656 -12.707031 11.941406 -13.75 11.109375 -14.472656 L 11.707031 -14.472656 C 12.496094 -14.472656 13.21875 -14.175781 13.769531 -13.601562 C 14.324219 -13.046875 14.621094 -12.300781 14.621094 -11.515625 L 14.621094 -9.449219 C 14.621094 -8.664062 14.324219 -7.917969 13.769531 -7.386719 C 13.238281 -6.832031 12.496094 -6.535156 11.707031 -6.535156 Z M 6.621094 -5.597656 L 6.621094 -0.9375 L 4.449219 -0.9375 L 4.449219 -5.597656 Z M 13.601562 -0.9375 C 12.941406 -0.9375 12.726562 -1.191406 12.621094 -1.40625 C 12.429688 -1.765625 12.410156 -2.320312 12.410156 -2.875 C 12.410156 -3.9375 12.300781 -4.769531 11.8125 -5.425781 C 11.769531 -5.492188 11.726562 -5.535156 11.664062 -5.597656 L 11.960938 -5.597656 C 12.410156 -5.597656 13.730469 -5.578125 14.28125 -4.851562 C 14.621094 -4.40625 14.6875 -3.746094 14.6875 -2.875 C 14.6875 -2.105469 14.730469 -1.488281 14.984375 -0.980469 C 15.007812 -0.980469 15.007812 -0.957031 15.027344 -0.9375 Z M 13.601562 -0.9375 "/></g></g></g><g fill="#ffffff" fill-opacity="1"><g transform="translate(127.243704, 40.257751)"><g><path d="M 6.8125 -0.957031 L 6.8125 -14.367188 L 8.34375 -14.367188 C 8.597656 -14.367188 8.8125 -14.582031 8.8125 -14.855469 C 8.8125 -15.113281 8.597656 -15.324219 8.34375 -15.324219 L 1.191406 -15.324219 C 0.914062 -15.324219 0.703125 -15.113281 0.703125 -14.855469 C 0.703125 -14.582031 0.914062 -14.367188 1.191406 -14.367188 L 2.789062 -14.367188 L 2.789062 -0.957031 L 1.191406 -0.957031 C 0.914062 -0.957031 0.703125 -0.746094 0.703125 -0.488281 C 0.703125 -0.210938 0.914062 0 1.191406 0 L 8.34375 0 C 8.597656 0 8.8125 -0.210938 8.8125 -0.488281 C 8.8125 -0.746094 8.597656 -0.957031 8.34375 -0.957031 Z M 5.851562 -0.957031 L 3.746094 -0.957031 L 3.746094 -14.367188 L 5.851562 -14.367188 Z M 5.851562 -0.957031 "/></g></g></g><g fill="#ffffff" fill-opacity="1"><g transform="translate(136.756467, 40.257751)"><g><path d="M 9.152344 -15.367188 L 1.105469 -15.367188 C 0.851562 -15.367188 0.636719 -15.15625 0.636719 -14.898438 C 0.636719 -14.644531 0.851562 -14.429688 1.105469 -14.429688 L 2.660156 -14.429688 L 2.660156 -0.9375 L 1.105469 -0.9375 C 0.851562 -0.9375 0.636719 -0.722656 0.636719 -0.46875 C 0.636719 -0.210938 0.851562 0 1.105469 0 L 11.515625 0 C 13.644531 0 15.390625 -1.746094 15.390625 -3.894531 L 15.390625 -11.472656 C 15.390625 -13.621094 13.644531 -15.367188 11.515625 -15.367188 Z M 3.597656 -0.9375 L 3.597656 -14.429688 L 5.8125 -14.429688 L 5.8125 -0.9375 Z M 6.746094 -0.9375 L 6.746094 -14.429688 L 9.132812 -14.429688 C 10.367188 -14.347656 11.324219 -13.324219 11.324219 -12.070312 L 11.324219 -3.300781 C 11.324219 -2.023438 10.324219 -0.980469 9.046875 -0.9375 Z M 14.472656 -3.894531 C 14.472656 -2.257812 13.132812 -0.9375 11.515625 -0.9375 L 11.257812 -0.9375 C 11.878906 -1.53125 12.261719 -2.363281 12.261719 -3.300781 L 12.261719 -12.070312 C 12.261719 -13.003906 11.878906 -13.835938 11.257812 -14.429688 L 11.515625 -14.429688 C 13.132812 -14.429688 14.472656 -13.113281 14.472656 -11.472656 Z M 14.472656 -3.894531 "/></g></g></g><g fill="#ffffff" fill-opacity="1"><g transform="translate(153.781566, 40.257751)"><g><path d="M 12.601562 -5.171875 C 12.34375 -5.171875 12.132812 -4.980469 12.132812 -4.703125 C 12.132812 -4.449219 12.34375 -4.234375 12.601562 -4.234375 L 14.324219 -4.234375 L 14.324219 -3.191406 C 13.046875 -1.746094 11.238281 -0.9375 9.300781 -0.9375 C 8.171875 -0.9375 7.089844 -1.214844 6.109375 -1.746094 L 6.109375 -11.152344 C 6.085938 -12.941406 7.535156 -14.386719 9.28125 -14.410156 L 9.300781 -14.410156 C 11.238281 -14.410156 13.046875 -13.578125 14.324219 -12.152344 L 14.324219 -10.664062 C 14.324219 -10.410156 14.539062 -10.195312 14.792969 -10.195312 C 15.070312 -10.195312 15.261719 -10.410156 15.261719 -10.664062 L 15.261719 -14.898438 C 15.261719 -15.175781 15.070312 -15.367188 14.792969 -15.367188 C 14.539062 -15.367188 14.324219 -15.175781 14.324219 -14.898438 L 14.324219 -13.472656 C 12.941406 -14.664062 11.175781 -15.347656 9.300781 -15.347656 C 8.257812 -15.347656 7.257812 -15.132812 6.320312 -14.75 C 5.40625 -14.347656 4.597656 -13.792969 3.894531 -13.089844 C 3.171875 -12.386719 2.617188 -11.578125 2.234375 -10.664062 C 1.851562 -9.707031 1.640625 -8.707031 1.640625 -7.664062 C 1.640625 -6.640625 1.851562 -5.640625 2.234375 -4.683594 C 2.617188 -3.765625 3.171875 -2.957031 3.894531 -2.257812 C 4.597656 -1.53125 5.40625 -0.980469 6.320312 -0.597656 C 7.28125 -0.210938 8.28125 0 9.300781 0 C 11.175781 0 12.941406 -0.679688 14.324219 -1.875 L 14.324219 -0.46875 C 14.324219 -0.210938 14.539062 0 14.792969 0 C 15.070312 0 15.261719 -0.210938 15.261719 -0.46875 L 15.261719 -4.234375 L 16.835938 -4.234375 C 17.113281 -4.234375 17.304688 -4.449219 17.304688 -4.703125 C 17.304688 -4.980469 17.113281 -5.171875 16.835938 -5.171875 Z M 5.152344 -2.363281 C 4.960938 -2.53125 4.746094 -2.703125 4.554688 -2.917969 C 3.277344 -4.171875 2.574219 -5.875 2.574219 -7.664062 C 2.574219 -9.472656 3.277344 -11.152344 4.554688 -12.429688 C 4.9375 -12.8125 5.363281 -13.152344 5.8125 -13.429688 C 5.386719 -12.769531 5.152344 -12.003906 5.152344 -11.152344 Z M 5.152344 -2.363281 "/></g></g></g><g fill="#ffffff" fill-opacity="1"><g transform="translate(171.551493, 40.257751)"><g><path d="M 14.261719 -14.898438 C 14.261719 -15.15625 14.046875 -15.367188 13.792969 -15.367188 L 1.105469 -15.367188 C 0.851562 -15.367188 0.636719 -15.15625 0.636719 -14.898438 C 0.636719 -14.644531 0.851562 -14.429688 1.105469 -14.429688 L 2.660156 -14.429688 L 2.660156 -0.9375 L 1.105469 -0.9375 C 0.851562 -0.9375 0.636719 -0.722656 0.636719 -0.46875 C 0.636719 -0.210938 0.851562 0 1.105469 0 L 13.792969 0 C 14.046875 0 14.261719 -0.210938 14.261719 -0.46875 L 14.261719 -2.40625 C 14.261719 -2.660156 14.046875 -2.875 13.792969 -2.875 C 13.539062 -2.875 13.324219 -2.660156 13.324219 -2.40625 L 13.324219 -0.9375 L 6.746094 -0.9375 L 6.746094 -5.554688 L 9.8125 -5.554688 L 9.8125 -4.085938 C 9.8125 -3.832031 10.023438 -3.617188 10.28125 -3.617188 C 10.535156 -3.617188 10.75 -3.832031 10.75 -4.085938 L 10.75 -8.003906 C 10.75 -8.257812 10.535156 -8.472656 10.28125 -8.472656 C 10.023438 -8.472656 9.8125 -8.257812 9.8125 -8.003906 L 9.8125 -6.492188 L 6.746094 -6.492188 L 6.746094 -14.429688 L 13.324219 -14.429688 L 13.324219 -12.960938 C 13.324219 -12.707031 13.539062 -12.496094 13.792969 -12.496094 C 14.046875 -12.496094 14.261719 -12.707031 14.261719 -12.960938 Z M 5.8125 -14.429688 L 5.8125 -6.492188 L 3.597656 -6.492188 L 3.597656 -14.429688 Z M 5.8125 -5.554688 L 5.8125 -0.9375 L 3.597656 -0.9375 L 3.597656 -5.554688 Z M 5.8125 -5.554688 "/></g></g></g></svg>