<svg xmlns="http://www.w3.org/2000/svg" xmlns:xlink="http://www.w3.org/1999/xlink" width="256" zoomAndPan="magnify" viewBox="0 0 192 74.999997" height="100" preserveAspectRatio="xMidYMid meet" version="1.0"><defs><g/><clipPath id="d1e6a94403"><path d="M 0 6.152344 L 89.25 6.152344 L 89.25 69.152344 L 0 69.152344 Z M 0 6.152344 " clip-rule="nonzero"/></clipPath></defs><rect x="-19.2" width="230.4" fill="#ffffff" y="-7.5" height="89.999996" fill-opacity="1"/><rect x="-19.2" width="230.4" fill="#e9fbf8" y="-7.5" height="89.999996" fill-opacity="1"/><g clip-path="url(#d1e6a94403)"><path fill="#000000" d="M 75.976562 27.773438 C 76.914062 28.160156 77.886719 28.460938 78.871094 28.667969 L 78.871094 36.222656 L 75.976562 37.371094 Z M 70.078125 39.707031 L 70.078125 36.492188 L 74.101562 36.492188 L 74.101562 38.113281 Z M 65.789062 41.40625 L 65.789062 29.734375 C 66.628906 29.441406 67.433594 29.097656 68.203125 28.710938 L 68.203125 40.449219 Z M 36.316406 30.253906 C 37.789062 31.3125 39.25 32.15625 40.679688 32.816406 L 40.679688 51.355469 L 36.316406 53.085938 Z M 29.273438 55.875 L 29.273438 50.207031 L 33.191406 50.207031 L 33.191406 54.320312 Z M 23.816406 50.207031 L 28.335938 50.207031 L 28.335938 56.246094 L 23.816406 58.035156 Z M 14.703125 61.648438 L 14.703125 58.167969 C 15.894531 57.253906 17.023438 56.351562 18.066406 55.476562 C 19 54.699219 19.871094 53.9375 20.691406 53.1875 L 20.691406 59.273438 Z M 14.703125 48.324219 C 18.035156 44.519531 19.730469 40.308594 20.691406 35.5625 L 20.691406 50.613281 C 19.542969 51.71875 18.277344 52.851562 16.867188 54.03125 C 16.179688 54.601562 15.457031 55.191406 14.703125 55.785156 Z M 33.191406 15.144531 C 32.902344 17.6875 32.695312 20.042969 32.503906 22.230469 C 32.484375 22.484375 32.460938 22.734375 32.441406 22.984375 L 30.929688 22.984375 C 28.808594 20.414062 26.707031 17.25 24.6875 13.371094 L 33.191406 13.371094 Z M 29.273438 43.066406 C 30.390625 41.1875 31.226562 39.332031 31.871094 37.457031 L 33.191406 37.457031 L 33.191406 47.066406 L 29.273438 47.066406 Z M 28.335938 44.546875 L 28.335938 47.066406 L 26.5 47.066406 C 27.175781 46.21875 27.78125 45.378906 28.335938 44.546875 Z M 23.816406 22.984375 L 23.816406 15.066406 C 25.476562 18.136719 27.1875 20.753906 28.921875 22.984375 Z M 24.074219 47.066406 L 23.816406 47.066406 L 23.816406 37.457031 L 29.890625 37.457031 C 28.71875 40.640625 26.929688 43.746094 24.074219 47.066406 Z M 32.101562 26.628906 C 31.820312 29.371094 31.460938 31.894531 30.851562 34.316406 L 23.816406 34.316406 L 23.816406 26.121094 L 31.617188 26.121094 C 31.777344 26.292969 31.941406 26.464844 32.101562 26.628906 Z M 33.191406 32.382812 L 33.191406 34.316406 L 32.78125 34.316406 C 32.933594 33.679688 33.066406 33.035156 33.191406 32.382812 Z M 40.679688 19.839844 L 40.679688 31.066406 C 39.25 30.351562 37.789062 29.4375 36.316406 28.289062 L 36.316406 12.644531 C 37.726562 15.433594 39.191406 17.8125 40.679688 19.839844 Z M 47.511719 26.816406 L 47.511719 33.199219 C 45.566406 32.9375 43.476562 32.378906 41.304688 31.375 L 41.304688 20.667969 C 43.355469 23.316406 45.449219 25.320312 47.511719 26.816406 Z M 59.40625 30.847656 C 59.742188 30.847656 60.074219 30.824219 60.40625 30.808594 C 58.785156 31.660156 57.003906 32.347656 55.125 32.796875 L 55.125 30.359375 C 56.621094 30.703125 58.042969 30.84375 59.359375 30.84375 C 59.375 30.847656 59.390625 30.847656 59.40625 30.847656 Z M 62.039062 31.710938 C 62.859375 31.234375 63.628906 30.71875 64.351562 30.175781 C 64.625 30.101562 64.898438 30.027344 65.164062 29.945312 L 65.164062 41.652344 L 62.039062 42.890625 Z M 58.875 33.253906 C 59.757812 32.902344 60.605469 32.503906 61.417969 32.066406 L 61.417969 43.136719 L 58.875 44.144531 Z M 55.125 34.421875 C 56.199219 34.183594 57.246094 33.878906 58.25 33.507812 L 58.25 44.394531 L 55.125 45.632812 Z M 51.886719 34.894531 C 52.773438 34.832031 53.644531 34.703125 54.5 34.539062 L 54.5 45.878906 L 51.886719 46.914062 Z M 50.289062 33.386719 C 50.273438 33.386719 50.257812 33.386719 50.242188 33.386719 C 49.566406 33.386719 48.859375 33.347656 48.136719 33.273438 L 48.136719 27.253906 C 50.324219 28.738281 52.472656 29.664062 54.5 30.203125 L 54.5 32.933594 C 53.136719 33.222656 51.726562 33.386719 50.289062 33.386719 Z M 48.136719 34.851562 C 48.859375 34.917969 49.5625 34.957031 50.238281 34.957031 C 50.257812 34.957031 50.273438 34.957031 50.292969 34.957031 C 50.617188 34.957031 50.9375 34.933594 51.261719 34.917969 L 51.261719 47.164062 L 48.136719 48.398438 Z M 44.429688 49.867188 L 41.304688 51.105469 L 41.304688 33.089844 C 42.367188 33.546875 43.414062 33.90625 44.429688 34.179688 Z M 45.054688 34.335938 C 45.894531 34.539062 46.714844 34.683594 47.511719 34.78125 L 47.511719 48.648438 L 45.054688 49.621094 Z M 68.203125 26.378906 L 68.203125 26.921875 C 67.953125 27.058594 67.695312 27.195312 67.433594 27.324219 C 67.707031 27.011719 67.964844 26.695312 68.203125 26.378906 Z M 70.078125 31.492188 L 74.101562 31.492188 L 74.101562 34.609375 L 70.078125 34.609375 Z M 70.960938 27.046875 L 74.101562 27.046875 L 74.101562 29.609375 L 70.078125 29.609375 L 70.078125 27.644531 C 70.378906 27.453125 70.675781 27.253906 70.960938 27.046875 Z M 72.078125 24.035156 C 71.53125 23.449219 71.035156 22.789062 70.609375 22.050781 L 73.714844 22.050781 C 73.273438 22.722656 72.722656 23.390625 72.078125 24.035156 Z M 70.078125 25.164062 L 70.078125 22.96875 C 70.476562 23.59375 70.917969 24.160156 71.402344 24.675781 C 71.214844 24.84375 71.023438 25.003906 70.824219 25.164062 Z M 74.101562 25.164062 L 73.308594 25.164062 C 73.28125 25.144531 73.253906 25.128906 73.230469 25.105469 C 73.539062 24.796875 73.832031 24.476562 74.101562 24.15625 Z M 78.5625 27.636719 C 77.679688 27.421875 76.808594 27.132812 75.976562 26.761719 L 75.976562 24.453125 C 76.640625 25.734375 77.5 26.796875 78.5625 27.636719 Z M 80.878906 28.988281 C 81.425781 29.21875 82.003906 29.417969 82.621094 29.574219 L 82.621094 34.734375 L 79.496094 35.972656 L 79.496094 28.789062 C 79.957031 28.871094 80.417969 28.941406 80.878906 28.988281 Z M 85.703125 34.65625 L 83.246094 34.65625 L 83.246094 29.722656 C 84.015625 29.882812 84.832031 29.992188 85.703125 30.046875 Z M 86.328125 34.65625 L 86.328125 30.070312 C 86.585938 30.082031 86.84375 30.09375 87.113281 30.09375 C 87.796875 30.09375 88.511719 30.066406 89.253906 30.007812 L 89.179688 29.070312 C 87.621094 29.191406 86.203125 29.171875 84.910156 29.023438 C 85.910156 28.9375 86.855469 28.789062 87.703125 28.582031 L 87.480469 27.667969 C 85.710938 28.101562 83.503906 28.292969 81.242188 28.082031 C 78.621094 26.949219 76.875 24.902344 75.976562 21.917969 L 75.976562 18.917969 L 74.101562 18.917969 L 74.101562 20.164062 L 70.078125 20.164062 L 70.078125 18.917969 L 68.203125 18.917969 L 68.203125 23.410156 C 67.324219 25.246094 65.726562 27.113281 63.628906 28.734375 C 62.273438 29.074219 60.855469 29.277344 59.402344 29.277344 C 59.390625 29.277344 59.375 29.277344 59.363281 29.277344 C 52.957031 29.257812 43.785156 25.707031 36.316406 9.003906 L 36.316406 6.152344 L 33.191406 6.152344 L 33.191406 10.230469 L 23.816406 10.230469 L 23.816406 6.152344 L 20.691406 6.152344 L 20.691406 15.957031 C 20.511719 18.128906 20.375 20.203125 20.246094 22.144531 C 19.316406 36.304688 18.699219 45.65625 5.285156 53.425781 L 6.21875 55.058594 C 9.335938 53.253906 11.800781 51.355469 13.765625 49.339844 L 13.765625 56.515625 C 13.25 56.914062 12.726562 57.3125 12.1875 57.71875 L 13.304688 59.230469 C 13.460938 59.113281 13.609375 58.996094 13.765625 58.878906 L 13.765625 62.019531 L 0 67.472656 L 18.9375 67.472656 L 20.691406 66.652344 L 20.691406 69.148438 L 23.816406 69.148438 L 23.816406 65.195312 L 33.191406 60.816406 L 33.191406 69.148438 L 36.316406 69.148438 L 36.316406 59.359375 L 68.203125 44.472656 L 68.203125 48.636719 L 70.078125 48.636719 L 70.078125 43.597656 L 74.101562 41.71875 L 74.101562 48.636719 L 75.976562 48.636719 L 75.976562 40.84375 L 89.226562 34.65625 L 86.328125 34.65625 " fill-opacity="1" fill-rule="nonzero"/></g><g fill="#000000" fill-opacity="1"><g transform="translate(91.077104, 40.250423)"><g><path d="M 15.097656 -12.050781 C 15.097656 -12.945312 14.753906 -13.777344 14.117188 -14.414062 C 13.476562 -15.054688 12.648438 -15.414062 11.753906 -15.414062 L 1.105469 -15.414062 C 0.851562 -15.414062 0.640625 -15.203125 0.640625 -14.949219 C 0.640625 -14.691406 0.851562 -14.480469 1.105469 -14.480469 L 2.703125 -14.480469 L 2.703125 -0.9375 L 1.105469 -0.9375 C 0.851562 -0.9375 0.640625 -0.722656 0.640625 -0.46875 C 0.640625 -0.214844 0.851562 0 1.105469 0 L 12.542969 0 C 14.691406 0 16.4375 -1.726562 16.4375 -3.855469 L 16.4375 -4.898438 C 16.4375 -5.941406 16.035156 -6.921875 15.289062 -7.644531 C 14.863281 -8.070312 14.371094 -8.390625 13.820312 -8.582031 C 14.605469 -9.175781 15.097656 -10.113281 15.097656 -11.179688 Z M 3.640625 -14.480469 L 5.835938 -14.480469 L 5.835938 -8.792969 L 3.640625 -8.792969 Z M 6.769531 -14.480469 L 8.558594 -14.480469 C 9.199219 -14.480469 9.835938 -14.222656 10.304688 -13.753906 C 10.796875 -13.285156 11.050781 -12.691406 11.050781 -12.050781 L 11.050781 -11.179688 C 11.050781 -9.878906 9.902344 -8.792969 8.558594 -8.792969 L 6.769531 -8.792969 Z M 14.160156 -11.179688 C 14.160156 -9.859375 13.074219 -8.792969 11.753906 -8.792969 L 10.921875 -8.792969 C 10.945312 -8.792969 10.945312 -8.816406 10.964844 -8.816406 C 11.625 -9.453125 11.988281 -10.285156 11.988281 -11.179688 L 11.988281 -12.050781 C 11.988281 -12.988281 11.5625 -13.863281 10.902344 -14.480469 L 11.753906 -14.480469 C 12.390625 -14.480469 12.988281 -14.222656 13.457031 -13.753906 C 13.902344 -13.308594 14.160156 -12.691406 14.160156 -12.050781 Z M 5.835938 -0.9375 L 3.640625 -0.9375 L 3.640625 -7.855469 L 5.835938 -7.855469 Z M 6.769531 -0.9375 L 6.769531 -7.855469 L 9.410156 -7.855469 C 10.199219 -7.855469 10.945312 -7.558594 11.496094 -6.984375 C 12.050781 -6.429688 12.371094 -5.683594 12.371094 -4.898438 L 12.371094 -3.855469 C 12.371094 -2.257812 11.050781 -0.9375 9.410156 -0.9375 Z M 15.5 -3.855469 C 15.5 -2.257812 14.160156 -0.9375 12.542969 -0.9375 L 11.945312 -0.9375 C 12.777344 -1.640625 13.308594 -2.703125 13.308594 -3.855469 L 13.308594 -4.898438 C 13.308594 -5.941406 12.902344 -6.921875 12.15625 -7.644531 C 12.09375 -7.730469 12.007812 -7.792969 11.945312 -7.855469 L 12.542969 -7.855469 C 13.328125 -7.855469 14.074219 -7.558594 14.628906 -6.984375 C 15.179688 -6.429688 15.5 -5.683594 15.5 -4.898438 Z M 15.5 -3.855469 "/></g></g></g><g fill="#000000" fill-opacity="1"><g transform="translate(108.910728, 40.250423)"><g><path d="M 15.566406 -11.519531 C 15.566406 -12.5625 15.160156 -13.542969 14.4375 -14.265625 C 13.710938 -15.011719 12.753906 -15.414062 11.710938 -15.414062 L 1.105469 -15.414062 C 0.851562 -15.414062 0.640625 -15.203125 0.640625 -14.949219 L 0.640625 -13.007812 C 0.640625 -12.753906 0.851562 -12.542969 1.105469 -12.542969 C 1.363281 -12.542969 1.574219 -12.753906 1.574219 -13.007812 L 1.574219 -14.480469 L 3.511719 -14.480469 L 3.511719 -6.535156 L 2 -6.535156 C 1.746094 -6.535156 1.53125 -6.324219 1.53125 -6.070312 C 1.53125 -5.8125 1.746094 -5.601562 2 -5.601562 L 3.511719 -5.601562 L 3.511719 -0.9375 L 1.917969 -0.9375 C 1.660156 -0.9375 1.449219 -0.722656 1.449219 -0.46875 C 1.449219 -0.214844 1.660156 0 1.917969 0 L 9.113281 0 C 9.367188 0 9.582031 -0.214844 9.582031 -0.46875 C 9.582031 -0.722656 9.367188 -0.9375 9.113281 -0.9375 L 7.558594 -0.9375 L 7.558594 -5.601562 L 8.75 -5.601562 C 9.199219 -5.601562 10.519531 -5.578125 11.070312 -4.855469 C 11.414062 -4.40625 11.476562 -3.746094 11.476562 -2.875 C 11.476562 -2.109375 11.519531 -1.492188 11.773438 -0.980469 C 12.117188 -0.339844 12.734375 0 13.605469 0 L 16.820312 0 C 17.078125 0 17.289062 -0.214844 17.289062 -0.46875 C 17.289062 -0.722656 17.078125 -0.9375 16.820312 -0.9375 C 16.160156 -0.9375 15.949219 -1.191406 15.839844 -1.40625 C 15.648438 -1.765625 15.628906 -2.320312 15.628906 -2.875 C 15.628906 -3.9375 15.523438 -4.769531 15.03125 -5.429688 C 14.753906 -5.792969 14.351562 -6.070312 13.863281 -6.238281 C 14.074219 -6.386719 14.265625 -6.535156 14.4375 -6.726562 C 15.160156 -7.453125 15.566406 -8.410156 15.566406 -9.453125 Z M 6.621094 -14.480469 L 6.621094 -6.535156 L 4.449219 -6.535156 L 4.449219 -14.480469 Z M 7.558594 -6.535156 L 7.558594 -14.480469 L 8.601562 -14.480469 C 10.21875 -14.480469 11.539062 -13.160156 11.539062 -11.519531 L 11.539062 -9.453125 C 11.539062 -8.667969 11.242188 -7.941406 10.6875 -7.386719 C 10.113281 -6.835938 9.390625 -6.535156 8.601562 -6.535156 Z M 11.136719 -6.535156 L 11.328125 -6.726562 C 12.074219 -7.453125 12.476562 -8.410156 12.476562 -9.453125 L 12.476562 -11.519531 C 12.476562 -12.710938 11.945312 -13.753906 11.113281 -14.480469 L 11.710938 -14.480469 C 12.5 -14.480469 13.222656 -14.179688 13.777344 -13.605469 C 14.328125 -13.050781 14.628906 -12.308594 14.628906 -11.519531 L 14.628906 -9.453125 C 14.628906 -8.667969 14.328125 -7.921875 13.777344 -7.386719 C 13.242188 -6.835938 12.5 -6.535156 11.710938 -6.535156 Z M 6.621094 -5.601562 L 6.621094 -0.9375 L 4.449219 -0.9375 L 4.449219 -5.601562 Z M 13.605469 -0.9375 C 12.945312 -0.9375 12.734375 -1.191406 12.625 -1.40625 C 12.433594 -1.765625 12.414062 -2.320312 12.414062 -2.875 C 12.414062 -3.9375 12.308594 -4.769531 11.816406 -5.429688 C 11.773438 -5.492188 11.730469 -5.535156 11.667969 -5.601562 L 11.964844 -5.601562 C 12.414062 -5.601562 13.734375 -5.578125 14.289062 -4.855469 C 14.628906 -4.40625 14.691406 -3.746094 14.691406 -2.875 C 14.691406 -2.109375 14.734375 -1.492188 14.988281 -0.980469 C 15.011719 -0.980469 15.011719 -0.957031 15.03125 -0.9375 Z M 13.605469 -0.9375 "/></g></g></g><g fill="#000000" fill-opacity="1"><g transform="translate(127.255102, 40.250423)"><g><path d="M 6.8125 -0.957031 L 6.8125 -14.371094 L 8.347656 -14.371094 C 8.601562 -14.371094 8.816406 -14.585938 8.816406 -14.863281 C 8.816406 -15.117188 8.601562 -15.332031 8.347656 -15.332031 L 1.191406 -15.332031 C 0.914062 -15.332031 0.703125 -15.117188 0.703125 -14.863281 C 0.703125 -14.585938 0.914062 -14.371094 1.191406 -14.371094 L 2.789062 -14.371094 L 2.789062 -0.957031 L 1.191406 -0.957031 C 0.914062 -0.957031 0.703125 -0.746094 0.703125 -0.488281 C 0.703125 -0.214844 0.914062 0 1.191406 0 L 8.347656 0 C 8.601562 0 8.816406 -0.214844 8.816406 -0.488281 C 8.816406 -0.746094 8.601562 -0.957031 8.347656 -0.957031 Z M 5.855469 -0.957031 L 3.746094 -0.957031 L 3.746094 -14.371094 L 5.855469 -14.371094 Z M 5.855469 -0.957031 "/></g></g></g><g fill="#000000" fill-opacity="1"><g transform="translate(136.767785, 40.250423)"><g><path d="M 9.15625 -15.375 L 1.105469 -15.375 C 0.851562 -15.375 0.640625 -15.160156 0.640625 -14.90625 C 0.640625 -14.648438 0.851562 -14.4375 1.105469 -14.4375 L 2.660156 -14.4375 L 2.660156 -0.9375 L 1.105469 -0.9375 C 0.851562 -0.9375 0.640625 -0.722656 0.640625 -0.46875 C 0.640625 -0.214844 0.851562 0 1.105469 0 L 11.519531 0 C 13.648438 0 15.394531 -1.746094 15.394531 -3.898438 L 15.394531 -11.476562 C 15.394531 -13.628906 13.648438 -15.375 11.519531 -15.375 Z M 3.597656 -0.9375 L 3.597656 -14.4375 L 5.8125 -14.4375 L 5.8125 -0.9375 Z M 6.75 -0.9375 L 6.75 -14.4375 L 9.132812 -14.4375 C 10.371094 -14.351562 11.328125 -13.328125 11.328125 -12.074219 L 11.328125 -3.300781 C 11.328125 -2.023438 10.328125 -0.980469 9.050781 -0.9375 Z M 14.480469 -3.898438 C 14.480469 -2.257812 13.136719 -0.9375 11.519531 -0.9375 L 11.265625 -0.9375 C 11.882812 -1.53125 12.265625 -2.363281 12.265625 -3.300781 L 12.265625 -12.074219 C 12.265625 -13.007812 11.882812 -13.839844 11.265625 -14.4375 L 11.519531 -14.4375 C 13.136719 -14.4375 14.480469 -13.117188 14.480469 -11.476562 Z M 14.480469 -3.898438 "/></g></g></g><g fill="#000000" fill-opacity="1"><g transform="translate(153.792736, 40.250423)"><g><path d="M 12.605469 -5.175781 C 12.351562 -5.175781 12.136719 -4.984375 12.136719 -4.707031 C 12.136719 -4.449219 12.351562 -4.238281 12.605469 -4.238281 L 14.328125 -4.238281 L 14.328125 -3.195312 C 13.050781 -1.746094 11.242188 -0.9375 9.304688 -0.9375 C 8.175781 -0.9375 7.089844 -1.214844 6.109375 -1.746094 L 6.109375 -11.15625 C 6.089844 -12.945312 7.539062 -14.394531 9.285156 -14.414062 L 9.304688 -14.414062 C 11.242188 -14.414062 13.050781 -13.585938 14.328125 -12.15625 L 14.328125 -10.667969 C 14.328125 -10.410156 14.542969 -10.199219 14.796875 -10.199219 C 15.074219 -10.199219 15.265625 -10.410156 15.265625 -10.667969 L 15.265625 -14.90625 C 15.265625 -15.179688 15.074219 -15.375 14.796875 -15.375 C 14.542969 -15.375 14.328125 -15.179688 14.328125 -14.90625 L 14.328125 -13.476562 C 12.945312 -14.671875 11.179688 -15.351562 9.304688 -15.351562 C 8.261719 -15.351562 7.261719 -15.140625 6.324219 -14.753906 C 5.410156 -14.351562 4.597656 -13.796875 3.898438 -13.09375 C 3.171875 -12.390625 2.617188 -11.582031 2.234375 -10.667969 C 1.851562 -9.710938 1.640625 -8.707031 1.640625 -7.664062 C 1.640625 -6.644531 1.851562 -5.640625 2.234375 -4.683594 C 2.617188 -3.769531 3.171875 -2.960938 3.898438 -2.257812 C 4.597656 -1.53125 5.410156 -0.980469 6.324219 -0.597656 C 7.28125 -0.214844 8.28125 0 9.304688 0 C 11.179688 0 12.945312 -0.679688 14.328125 -1.875 L 14.328125 -0.46875 C 14.328125 -0.214844 14.542969 0 14.796875 0 C 15.074219 0 15.265625 -0.214844 15.265625 -0.46875 L 15.265625 -4.238281 L 16.84375 -4.238281 C 17.121094 -4.238281 17.3125 -4.449219 17.3125 -4.707031 C 17.3125 -4.984375 17.121094 -5.175781 16.84375 -5.175781 Z M 5.152344 -2.363281 C 4.960938 -2.535156 4.75 -2.703125 4.554688 -2.917969 C 3.277344 -4.171875 2.578125 -5.875 2.578125 -7.664062 C 2.578125 -9.476562 3.277344 -11.15625 4.554688 -12.433594 C 4.941406 -12.816406 5.367188 -13.160156 5.8125 -13.4375 C 5.386719 -12.777344 5.152344 -12.007812 5.152344 -11.15625 Z M 5.152344 -2.363281 "/></g></g></g><g fill="#000000" fill-opacity="1"><g transform="translate(171.562525, 40.250423)"><g><path d="M 14.265625 -14.90625 C 14.265625 -15.160156 14.054688 -15.375 13.796875 -15.375 L 1.105469 -15.375 C 0.851562 -15.375 0.640625 -15.160156 0.640625 -14.90625 C 0.640625 -14.648438 0.851562 -14.4375 1.105469 -14.4375 L 2.660156 -14.4375 L 2.660156 -0.9375 L 1.105469 -0.9375 C 0.851562 -0.9375 0.640625 -0.722656 0.640625 -0.46875 C 0.640625 -0.214844 0.851562 0 1.105469 0 L 13.796875 0 C 14.054688 0 14.265625 -0.214844 14.265625 -0.46875 L 14.265625 -2.40625 C 14.265625 -2.660156 14.054688 -2.875 13.796875 -2.875 C 13.542969 -2.875 13.328125 -2.660156 13.328125 -2.40625 L 13.328125 -0.9375 L 6.75 -0.9375 L 6.75 -5.558594 L 9.816406 -5.558594 L 9.816406 -4.089844 C 9.816406 -3.832031 10.027344 -3.621094 10.285156 -3.621094 C 10.539062 -3.621094 10.753906 -3.832031 10.753906 -4.089844 L 10.753906 -8.007812 C 10.753906 -8.261719 10.539062 -8.472656 10.285156 -8.472656 C 10.027344 -8.472656 9.816406 -8.261719 9.816406 -8.007812 L 9.816406 -6.496094 L 6.75 -6.496094 L 6.75 -14.4375 L 13.328125 -14.4375 L 13.328125 -12.96875 C 13.328125 -12.710938 13.542969 -12.5 13.796875 -12.5 C 14.054688 -12.5 14.265625 -12.710938 14.265625 -12.96875 Z M 5.8125 -14.4375 L 5.8125 -6.496094 L 3.597656 -6.496094 L 3.597656 -14.4375 Z M 5.8125 -5.558594 L 5.8125 -0.9375 L 3.597656 -0.9375 L 3.597656 -5.558594 Z M 5.8125 -5.558594 "/></g></g></g></svg>