<svg xmlns="http://www.w3.org/2000/svg" xmlns:xlink="http://www.w3.org/1999/xlink" width="256" zoomAndPan="magnify" viewBox="0 0 192 74.999997" height="100" preserveAspectRatio="xMidYMid meet" version="1.0"><defs><g/><clipPath id="e7a8098cec"><path d="M 0 6.152344 L 89.25 6.152344 L 89.25 69.152344 L 0 69.152344 Z M 0 6.152344 " clip-rule="nonzero"/></clipPath></defs><rect x="-19.2" width="230.4" fill="#ffffff" y="-7.5" height="89.999996" fill-opacity="1"/><rect x="-19.2" width="230.4" fill="#e9fbf8" y="-7.5" height="89.999996" fill-opacity="1"/><g clip-path="url(#e7a8098cec)"><path fill="#000000" d="M 75.976562 27.773438 C 76.914062 28.160156 77.886719 28.460938 78.871094 28.667969 L 78.871094 36.222656 L 75.976562 37.371094 Z M 70.078125 39.707031 L 70.078125 36.492188 L 74.101562 36.492188 L 74.101562 38.113281 Z M 65.789062 41.40625 L 65.789062 29.734375 C 66.628906 29.441406 67.433594 29.097656 68.203125 28.710938 L 68.203125 40.449219 Z M 36.316406 30.253906 C 37.789062 31.3125 39.25 32.15625 40.679688 32.816406 L 40.679688 51.355469 L 36.316406 53.085938 Z M 29.273438 55.875 L 29.273438 50.207031 L 33.191406 50.207031 L 33.191406 54.320312 Z M 23.816406 50.207031 L 28.335938 50.207031 L 28.335938 56.246094 L 23.816406 58.035156 Z M 14.703125 61.648438 L 14.703125 58.167969 C 15.894531 57.253906 17.023438 56.351562 18.066406 55.476562 C 19 54.699219 19.871094 53.9375 20.691406 53.1875 L 20.691406 59.273438 Z M 14.703125 48.324219 C 18.035156 44.519531 19.730469 40.308594 20.691406 35.5625 L 20.691406 50.613281 C 19.542969 51.71875 18.277344 52.851562 16.867188 54.03125 C 16.179688 54.601562 15.457031 55.191406 14.703125 55.785156 Z M 33.191406 15.144531 C 32.902344 17.6875 32.695312 20.042969 32.503906 22.230469 C 32.484375 22.484375 32.460938 22.734375 32.441406 22.984375 L 30.929688 22.984375 C 28.808594 20.414062 26.707031 17.25 24.6875 13.371094 L 33.191406 13.371094 Z M 29.273438 43.066406 C 30.390625 41.1875 31.226562 39.332031 31.871094 37.457031 L 33.191406 37.457031 L 33.191406 47.066406 L 29.273438 47.066406 Z M 28.335938 44.546875 L 28.335938 47.066406 L 26.5 47.066406 C 27.175781 46.21875 27.78125 45.378906 28.335938 44.546875 Z M 23.816406 22.984375 L 23.816406 15.066406 C 25.476562 18.136719 27.1875 20.753906 28.921875 22.984375 Z M 24.074219 47.066406 L 23.816406 47.066406 L 23.816406 37.457031 L 29.890625 37.457031 C 28.71875 40.640625 26.929688 43.746094 24.074219 47.066406 Z M 32.101562 26.628906 C 31.820312 29.371094 31.460938 31.894531 30.851562 34.316406 L 23.816406 34.316406 L 23.816406 26.121094 L 31.617188 26.121094 C 31.777344 26.292969 31.941406 26.464844 32.101562 26.628906 Z M 33.191406 32.382812 L 33.191406 34.316406 L 32.78125 34.316406 C 32.933594 33.679688 33.066406 33.035156 33.191406 32.382812 Z M 40.679688 19.839844 L 40.679688 31.066406 C 39.25 30.351562 37.789062 29.4375 36.316406 28.289062 L 36.316406 12.644531 C 37.726562 15.433594 39.191406 17.8125 40.679688 19.839844 Z M 47.511719 26.816406 L 47.511719 33.199219 C 45.566406 32.9375 43.476562 32.378906 41.304688 31.375 L 41.304688 20.667969 C 43.355469 23.316406 45.449219 25.320312 47.511719 26.816406 Z M 59.40625 30.847656 C 59.742188 30.847656 60.074219 30.824219 60.40625 30.808594 C 58.785156 31.660156 57.003906 32.347656 55.125 32.796875 L 55.125 30.359375 C 56.621094 30.703125 58.042969 30.84375 59.359375 30.84375 C 59.375 30.847656 59.390625 30.847656 59.40625 30.847656 Z M 62.039062 31.710938 C 62.859375 31.234375 63.628906 30.71875 64.351562 30.175781 C 64.625 30.101562 64.898438 30.027344 65.164062 29.945312 L 65.164062 41.652344 L 62.039062 42.890625 Z M 58.875 33.253906 C 59.757812 32.902344 60.605469 32.503906 61.417969 32.066406 L 61.417969 43.136719 L 58.875 44.144531 Z M 55.125 34.421875 C 56.199219 34.183594 57.246094 33.878906 58.25 33.507812 L 58.25 44.394531 L 55.125 45.632812 Z M 51.886719 34.894531 C 52.773438 34.832031 53.644531 34.703125 54.5 34.539062 L 54.5 45.878906 L 51.886719 46.914062 Z M 50.289062 33.386719 C 50.273438 33.386719 50.257812 33.386719 50.242188 33.386719 C 49.566406 33.386719 48.859375 33.347656 48.136719 33.273438 L 48.136719 27.253906 C 50.324219 28.738281 52.472656 29.664062 54.5 30.203125 L 54.5 32.933594 C 53.136719 33.222656 51.726562 33.386719 50.289062 33.386719 Z M 48.136719 34.851562 C 48.859375 34.917969 49.5625 34.957031 50.238281 34.957031 C 50.257812 34.957031 50.273438 34.957031 50.292969 34.957031 C 50.617188 34.957031 50.9375 34.933594 51.261719 34.917969 L 51.261719 47.164062 L 48.136719 48.398438 Z M 44.429688 49.867188 L 41.304688 51.105469 L 41.304688 33.089844 C 42.367188 33.546875 43.414062 33.90625 44.429688 34.179688 Z M 45.054688 34.335938 C 45.894531 34.539062 46.714844 34.683594 47.511719 34.78125 L 47.511719 48.648438 L 45.054688 49.621094 Z M 68.203125 26.378906 L 68.203125 26.921875 C 67.953125 27.058594 67.695312 27.195312 67.433594 27.324219 C 67.707031 27.011719 67.964844 26.695312 68.203125 26.378906 Z M 70.078125 31.492188 L 74.101562 31.492188 L 74.101562 34.609375 L 70.078125 34.609375 Z M 70.960938 27.046875 L 74.101562 27.046875 L 74.101562 29.609375 L 70.078125 29.609375 L 70.078125 27.644531 C 70.378906 27.453125 70.675781 27.253906 70.960938 27.046875 Z M 72.078125 24.035156 C 71.53125 23.449219 71.035156 22.789062 70.609375 22.050781 L 73.714844 22.050781 C 73.273438 22.722656 72.722656 23.390625 72.078125 24.035156 Z M 70.078125 25.164062 L 70.078125 22.96875 C 70.476562 23.59375 70.917969 24.160156 71.402344 24.675781 C 71.214844 24.84375 71.023438 25.003906 70.824219 25.164062 Z M 74.101562 25.164062 L 73.308594 25.164062 C 73.28125 25.144531 73.253906 25.128906 73.230469 25.105469 C 73.539062 24.796875 73.832031 24.476562 74.101562 24.15625 Z M 78.5625 27.636719 C 77.679688 27.421875 76.808594 27.132812 75.976562 26.761719 L 75.976562 24.453125 C 76.640625 25.734375 77.5 26.796875 78.5625 27.636719 Z M 80.878906 28.988281 C 81.425781 29.21875 82.003906 29.417969 82.621094 29.574219 L 82.621094 34.734375 L 79.496094 35.972656 L 79.496094 28.789062 C 79.957031 28.871094 80.417969 28.941406 80.878906 28.988281 Z M 85.703125 34.65625 L 83.246094 34.65625 L 83.246094 29.722656 C 84.015625 29.882812 84.832031 29.992188 85.703125 30.046875 Z M 86.328125 34.65625 L 86.328125 30.070312 C 86.585938 30.082031 86.84375 30.09375 87.113281 30.09375 C 87.796875 30.09375 88.511719 30.066406 89.253906 30.007812 L 89.179688 29.070312 C 87.621094 29.191406 86.203125 29.171875 84.910156 29.023438 C 85.910156 28.9375 86.855469 28.789062 87.703125 28.582031 L 87.480469 27.667969 C 85.710938 28.101562 83.503906 28.292969 81.242188 28.082031 C 78.621094 26.949219 76.875 24.902344 75.976562 21.917969 L 75.976562 18.917969 L 74.101562 18.917969 L 74.101562 20.164062 L 70.078125 20.164062 L 70.078125 18.917969 L 68.203125 18.917969 L 68.203125 23.410156 C 67.324219 25.246094 65.726562 27.113281 63.628906 28.734375 C 62.273438 29.074219 60.855469 29.277344 59.402344 29.277344 C 59.390625 29.277344 59.375 29.277344 59.363281 29.277344 C 52.957031 29.257812 43.785156 25.707031 36.316406 9.003906 L 36.316406 6.152344 L 33.191406 6.152344 L 33.191406 10.230469 L 23.816406 10.230469 L 23.816406 6.152344 L 20.691406 6.152344 L 20.691406 15.957031 C 20.511719 18.128906 20.375 20.203125 20.246094 22.144531 C 19.316406 36.304688 18.699219 45.65625 5.285156 53.425781 L 6.21875 55.058594 C 9.335938 53.253906 11.800781 51.355469 13.765625 49.339844 L 13.765625 56.515625 C 13.25 56.914062 12.726562 57.3125 12.1875 57.71875 L 13.304688 59.230469 C 13.460938 59.113281 13.609375 58.996094 13.765625 58.878906 L 13.765625 62.019531 L 0 67.472656 L 18.9375 67.472656 L 20.691406 66.652344 L 20.691406 69.148438 L 23.816406 69.148438 L 23.816406 65.195312 L 33.191406 60.816406 L 33.191406 69.148438 L 36.316406 69.148438 L 36.316406 59.359375 L 68.203125 44.472656 L 68.203125 48.636719 L 70.078125 48.636719 L 70.078125 43.597656 L 74.101562 41.71875 L 74.101562 48.636719 L 75.976562 48.636719 L 75.976562 40.84375 L 89.226562 34.65625 L 86.328125 34.65625 " fill-opacity="1" fill-rule="nonzero"/></g><g fill="#000000" fill-opacity="1"><g transform="translate(96.691402, 44.154326)"><g><path d="M 15.132812 -12.082031 C 15.132812 -12.976562 14.792969 -13.808594 14.152344 -14.449219 C 13.511719 -15.089844 12.679688 -15.453125 11.78125 -15.453125 L 1.109375 -15.453125 C 0.855469 -15.453125 0.640625 -15.242188 0.640625 -14.984375 C 0.640625 -14.726562 0.855469 -14.515625 1.109375 -14.515625 L 2.710938 -14.515625 L 2.710938 -0.9375 L 1.109375 -0.9375 C 0.855469 -0.9375 0.640625 -0.726562 0.640625 -0.46875 C 0.640625 -0.214844 0.855469 0 1.109375 0 L 12.570312 0 C 14.726562 0 16.476562 -1.730469 16.476562 -3.863281 L 16.476562 -4.910156 C 16.476562 -5.957031 16.074219 -6.9375 15.324219 -7.664062 C 14.898438 -8.089844 14.40625 -8.410156 13.851562 -8.601562 C 14.644531 -9.199219 15.132812 -10.140625 15.132812 -11.207031 Z M 3.648438 -14.515625 L 5.847656 -14.515625 L 5.847656 -8.816406 L 3.648438 -8.816406 Z M 6.789062 -14.515625 L 8.582031 -14.515625 C 9.222656 -14.515625 9.863281 -14.257812 10.332031 -13.789062 C 10.820312 -13.320312 11.078125 -12.722656 11.078125 -12.082031 L 11.078125 -11.207031 C 11.078125 -9.902344 9.925781 -8.816406 8.582031 -8.816406 L 6.789062 -8.816406 Z M 14.195312 -11.207031 C 14.195312 -9.882812 13.105469 -8.816406 11.78125 -8.816406 L 10.949219 -8.816406 C 10.972656 -8.816406 10.972656 -8.835938 10.992188 -8.835938 C 11.65625 -9.476562 12.015625 -10.308594 12.015625 -11.207031 L 12.015625 -12.082031 C 12.015625 -13.019531 11.589844 -13.894531 10.929688 -14.515625 L 11.78125 -14.515625 C 12.421875 -14.515625 13.019531 -14.257812 13.488281 -13.789062 C 13.9375 -13.339844 14.195312 -12.722656 14.195312 -12.082031 Z M 5.847656 -0.9375 L 3.648438 -0.9375 L 3.648438 -7.875 L 5.847656 -7.875 Z M 6.789062 -0.9375 L 6.789062 -7.875 L 9.433594 -7.875 C 10.222656 -7.875 10.972656 -7.578125 11.527344 -7 C 12.082031 -6.445312 12.402344 -5.699219 12.402344 -4.910156 L 12.402344 -3.863281 C 12.402344 -2.261719 11.078125 -0.9375 9.433594 -0.9375 Z M 15.539062 -3.863281 C 15.539062 -2.261719 14.195312 -0.9375 12.570312 -0.9375 L 11.972656 -0.9375 C 12.808594 -1.644531 13.339844 -2.710938 13.339844 -3.863281 L 13.339844 -4.910156 C 13.339844 -5.957031 12.933594 -6.9375 12.1875 -7.664062 C 12.125 -7.75 12.039062 -7.8125 11.972656 -7.875 L 12.570312 -7.875 C 13.363281 -7.875 14.109375 -7.578125 14.664062 -7 C 15.21875 -6.445312 15.539062 -5.699219 15.539062 -4.910156 Z M 15.539062 -3.863281 "/></g></g></g><g fill="#000000" fill-opacity="1"><g transform="translate(114.574179, 44.154326)"><g><path d="M 15.601562 -11.546875 C 15.601562 -12.59375 15.199219 -13.574219 14.472656 -14.300781 C 13.746094 -15.046875 12.785156 -15.453125 11.738281 -15.453125 L 1.109375 -15.453125 C 0.855469 -15.453125 0.640625 -15.242188 0.640625 -14.984375 L 0.640625 -13.042969 C 0.640625 -12.785156 0.855469 -12.570312 1.109375 -12.570312 C 1.367188 -12.570312 1.578125 -12.785156 1.578125 -13.042969 L 1.578125 -14.515625 L 3.523438 -14.515625 L 3.523438 -6.554688 L 2.007812 -6.554688 C 1.75 -6.554688 1.535156 -6.339844 1.535156 -6.082031 C 1.535156 -5.828125 1.75 -5.613281 2.007812 -5.613281 L 3.523438 -5.613281 L 3.523438 -0.9375 L 1.921875 -0.9375 C 1.664062 -0.9375 1.453125 -0.726562 1.453125 -0.46875 C 1.453125 -0.214844 1.664062 0 1.921875 0 L 9.136719 0 C 9.390625 0 9.605469 -0.214844 9.605469 -0.46875 C 9.605469 -0.726562 9.390625 -0.9375 9.136719 -0.9375 L 7.578125 -0.9375 L 7.578125 -5.613281 L 8.773438 -5.613281 C 9.222656 -5.613281 10.542969 -5.59375 11.097656 -4.867188 C 11.441406 -4.417969 11.503906 -3.757812 11.503906 -2.882812 C 11.503906 -2.113281 11.546875 -1.496094 11.804688 -0.980469 C 12.144531 -0.339844 12.765625 0 13.640625 0 L 16.863281 0 C 17.117188 0 17.332031 -0.214844 17.332031 -0.46875 C 17.332031 -0.726562 17.117188 -0.9375 16.863281 -0.9375 C 16.199219 -0.9375 15.988281 -1.195312 15.878906 -1.410156 C 15.6875 -1.773438 15.667969 -2.328125 15.667969 -2.882812 C 15.667969 -3.949219 15.558594 -4.78125 15.070312 -5.441406 C 14.792969 -5.804688 14.386719 -6.082031 13.894531 -6.253906 C 14.109375 -6.402344 14.300781 -6.554688 14.472656 -6.746094 C 15.199219 -7.472656 15.601562 -8.429688 15.601562 -9.476562 Z M 6.636719 -14.515625 L 6.636719 -6.554688 L 4.460938 -6.554688 L 4.460938 -14.515625 Z M 7.578125 -6.554688 L 7.578125 -14.515625 L 8.625 -14.515625 C 10.246094 -14.515625 11.570312 -13.191406 11.570312 -11.546875 L 11.570312 -9.476562 C 11.570312 -8.6875 11.269531 -7.960938 10.714844 -7.40625 C 10.140625 -6.851562 9.414062 -6.554688 8.625 -6.554688 Z M 11.164062 -6.554688 L 11.355469 -6.746094 C 12.101562 -7.472656 12.507812 -8.429688 12.507812 -9.476562 L 12.507812 -11.546875 C 12.507812 -12.742188 11.972656 -13.789062 11.140625 -14.515625 L 11.738281 -14.515625 C 12.53125 -14.515625 13.253906 -14.214844 13.808594 -13.640625 C 14.363281 -13.085938 14.664062 -12.335938 14.664062 -11.546875 L 14.664062 -9.476562 C 14.664062 -8.6875 14.363281 -7.941406 13.808594 -7.40625 C 13.277344 -6.851562 12.53125 -6.554688 11.738281 -6.554688 Z M 6.636719 -5.613281 L 6.636719 -0.9375 L 4.460938 -0.9375 L 4.460938 -5.613281 Z M 13.640625 -0.9375 C 12.976562 -0.9375 12.765625 -1.195312 12.65625 -1.410156 C 12.464844 -1.773438 12.445312 -2.328125 12.445312 -2.882812 C 12.445312 -3.949219 12.335938 -4.78125 11.847656 -5.441406 C 11.804688 -5.507812 11.761719 -5.550781 11.695312 -5.613281 L 11.996094 -5.613281 C 12.445312 -5.613281 13.765625 -5.59375 14.324219 -4.867188 C 14.664062 -4.417969 14.726562 -3.757812 14.726562 -2.882812 C 14.726562 -2.113281 14.769531 -1.496094 15.027344 -0.980469 C 15.046875 -0.980469 15.046875 -0.960938 15.070312 -0.9375 Z M 13.640625 -0.9375 "/></g></g></g><g fill="#000000" fill-opacity="1"><g transform="translate(132.969113, 44.154326)"><g><path d="M 6.832031 -0.960938 L 6.832031 -14.40625 L 8.367188 -14.40625 C 8.625 -14.40625 8.835938 -14.621094 8.835938 -14.898438 C 8.835938 -15.15625 8.625 -15.367188 8.367188 -15.367188 L 1.195312 -15.367188 C 0.917969 -15.367188 0.703125 -15.15625 0.703125 -14.898438 C 0.703125 -14.621094 0.917969 -14.40625 1.195312 -14.40625 L 2.796875 -14.40625 L 2.796875 -0.960938 L 1.195312 -0.960938 C 0.917969 -0.960938 0.703125 -0.746094 0.703125 -0.492188 C 0.703125 -0.214844 0.917969 0 1.195312 0 L 8.367188 0 C 8.625 0 8.835938 -0.214844 8.835938 -0.492188 C 8.835938 -0.746094 8.625 -0.960938 8.367188 -0.960938 Z M 5.871094 -0.960938 L 3.757812 -0.960938 L 3.757812 -14.40625 L 5.871094 -14.40625 Z M 5.871094 -0.960938 "/></g></g></g><g fill="#000000" fill-opacity="1"><g transform="translate(142.508015, 44.154326)"><g><path d="M 9.179688 -15.410156 L 1.109375 -15.410156 C 0.855469 -15.410156 0.640625 -15.199219 0.640625 -14.941406 C 0.640625 -14.683594 0.855469 -14.472656 1.109375 -14.472656 L 2.667969 -14.472656 L 2.667969 -0.9375 L 1.109375 -0.9375 C 0.855469 -0.9375 0.640625 -0.726562 0.640625 -0.46875 C 0.640625 -0.214844 0.855469 0 1.109375 0 L 11.546875 0 C 13.683594 0 15.433594 -1.75 15.433594 -3.90625 L 15.433594 -11.503906 C 15.433594 -13.660156 13.683594 -15.410156 11.546875 -15.410156 Z M 3.605469 -0.9375 L 3.605469 -14.472656 L 5.828125 -14.472656 L 5.828125 -0.9375 Z M 6.765625 -0.9375 L 6.765625 -14.472656 L 9.15625 -14.472656 C 10.394531 -14.386719 11.355469 -13.363281 11.355469 -12.101562 L 11.355469 -3.308594 C 11.355469 -2.027344 10.351562 -0.980469 9.070312 -0.9375 Z M 14.515625 -3.90625 C 14.515625 -2.261719 13.167969 -0.9375 11.546875 -0.9375 L 11.292969 -0.9375 C 11.910156 -1.535156 12.292969 -2.371094 12.292969 -3.308594 L 12.292969 -12.101562 C 12.292969 -13.042969 11.910156 -13.875 11.292969 -14.472656 L 11.546875 -14.472656 C 13.167969 -14.472656 14.515625 -13.148438 14.515625 -11.503906 Z M 14.515625 -3.90625 "/></g></g></g><g fill="#000000" fill-opacity="1"><g transform="translate(159.579886, 44.154326)"><g><path d="M 12.636719 -5.1875 C 12.378906 -5.1875 12.167969 -4.996094 12.167969 -4.71875 C 12.167969 -4.460938 12.378906 -4.246094 12.636719 -4.246094 L 14.363281 -4.246094 L 14.363281 -3.203125 C 13.085938 -1.75 11.269531 -0.9375 9.328125 -0.9375 C 8.195312 -0.9375 7.109375 -1.214844 6.125 -1.75 L 6.125 -11.183594 C 6.105469 -12.976562 7.554688 -14.429688 9.304688 -14.449219 L 9.328125 -14.449219 C 11.269531 -14.449219 13.085938 -13.617188 14.363281 -12.1875 L 14.363281 -10.695312 C 14.363281 -10.4375 14.578125 -10.222656 14.835938 -10.222656 C 15.113281 -10.222656 15.304688 -10.4375 15.304688 -10.695312 L 15.304688 -14.941406 C 15.304688 -15.21875 15.113281 -15.410156 14.835938 -15.410156 C 14.578125 -15.410156 14.363281 -15.21875 14.363281 -14.941406 L 14.363281 -13.511719 C 12.976562 -14.707031 11.207031 -15.390625 9.328125 -15.390625 C 8.28125 -15.390625 7.277344 -15.175781 6.339844 -14.792969 C 5.421875 -14.386719 4.609375 -13.832031 3.90625 -13.128906 C 3.179688 -12.421875 2.625 -11.613281 2.242188 -10.695312 C 1.855469 -9.734375 1.644531 -8.730469 1.644531 -7.683594 C 1.644531 -6.660156 1.855469 -5.65625 2.242188 -4.695312 C 2.625 -3.777344 3.179688 -2.96875 3.90625 -2.261719 C 4.609375 -1.535156 5.421875 -0.980469 6.339844 -0.597656 C 7.300781 -0.214844 8.304688 0 9.328125 0 C 11.207031 0 12.976562 -0.683594 14.363281 -1.878906 L 14.363281 -0.46875 C 14.363281 -0.214844 14.578125 0 14.835938 0 C 15.113281 0 15.304688 -0.214844 15.304688 -0.46875 L 15.304688 -4.246094 L 16.882812 -4.246094 C 17.160156 -4.246094 17.351562 -4.460938 17.351562 -4.71875 C 17.351562 -4.996094 17.160156 -5.1875 16.882812 -5.1875 Z M 5.164062 -2.371094 C 4.972656 -2.539062 4.761719 -2.710938 4.566406 -2.925781 C 3.289062 -4.183594 2.582031 -5.890625 2.582031 -7.683594 C 2.582031 -9.5 3.289062 -11.183594 4.566406 -12.464844 C 4.953125 -12.851562 5.378906 -13.191406 5.828125 -13.46875 C 5.398438 -12.808594 5.164062 -12.039062 5.164062 -11.183594 Z M 5.164062 -2.371094 "/></g></g></g><g fill="#000000" fill-opacity="1"><g transform="translate(177.398645, 44.154326)"><g><path d="M 14.300781 -14.941406 C 14.300781 -15.199219 14.085938 -15.410156 13.832031 -15.410156 L 1.109375 -15.410156 C 0.855469 -15.410156 0.640625 -15.199219 0.640625 -14.941406 C 0.640625 -14.683594 0.855469 -14.472656 1.109375 -14.472656 L 2.667969 -14.472656 L 2.667969 -0.9375 L 1.109375 -0.9375 C 0.855469 -0.9375 0.640625 -0.726562 0.640625 -0.46875 C 0.640625 -0.214844 0.855469 0 1.109375 0 L 13.832031 0 C 14.085938 0 14.300781 -0.214844 14.300781 -0.46875 L 14.300781 -2.410156 C 14.300781 -2.667969 14.085938 -2.882812 13.832031 -2.882812 C 13.574219 -2.882812 13.363281 -2.667969 13.363281 -2.410156 L 13.363281 -0.9375 L 6.765625 -0.9375 L 6.765625 -5.570312 L 9.839844 -5.570312 L 9.839844 -4.097656 C 9.839844 -3.84375 10.054688 -3.628906 10.308594 -3.628906 C 10.566406 -3.628906 10.777344 -3.84375 10.777344 -4.097656 L 10.777344 -8.027344 C 10.777344 -8.28125 10.566406 -8.496094 10.308594 -8.496094 C 10.054688 -8.496094 9.839844 -8.28125 9.839844 -8.027344 L 9.839844 -6.511719 L 6.765625 -6.511719 L 6.765625 -14.472656 L 13.363281 -14.472656 L 13.363281 -13 C 13.363281 -12.742188 13.574219 -12.53125 13.832031 -12.53125 C 14.085938 -12.53125 14.300781 -12.742188 14.300781 -13 Z M 5.828125 -14.472656 L 5.828125 -6.511719 L 3.605469 -6.511719 L 3.605469 -14.472656 Z M 5.828125 -5.570312 L 5.828125 -0.9375 L 3.605469 -0.9375 L 3.605469 -5.570312 Z M 5.828125 -5.570312 "/></g></g></g><g fill="#000000" fill-opacity="1"><g transform="translate(96.180192, 45.858343)"><g><path d="M -5.664062 -0.46875 C -5.664062 -0.375 -5.585938 -0.296875 -5.492188 -0.296875 L -4.84375 -0.296875 C -4.75 -0.296875 -4.671875 -0.375 -4.671875 -0.46875 C -4.671875 -0.5625 -4.75 -0.640625 -4.84375 -0.640625 L -5.320312 -0.640625 L -5.320312 -2.21875 L -0.34375 -2.21875 L -0.34375 -1.628906 C -0.34375 -1.535156 -0.265625 -1.457031 -0.171875 -1.457031 C -0.078125 -1.457031 0 -1.535156 0 -1.628906 L 0 -4.269531 C 0 -4.363281 -0.078125 -4.441406 -0.171875 -4.441406 C -0.265625 -4.441406 -0.34375 -4.363281 -0.34375 -4.269531 L -0.34375 -3.714844 L -5.320312 -3.714844 L -5.320312 -5.34375 L -4.78125 -5.34375 C -4.6875 -5.34375 -4.609375 -5.421875 -4.609375 -5.515625 C -4.609375 -5.609375 -4.6875 -5.6875 -4.78125 -5.6875 L -5.492188 -5.6875 C -5.585938 -5.6875 -5.664062 -5.609375 -5.664062 -5.515625 Z M -5.320312 -3.371094 L -0.34375 -3.371094 L -0.34375 -2.5625 L -5.320312 -2.5625 Z M -5.320312 -3.371094 "/></g></g></g><g fill="#000000" fill-opacity="1"><g transform="translate(96.180192, 39.871598)"><g><path d="M -0.351562 -6.167969 L -5.28125 -6.167969 L -5.28125 -6.730469 C -5.28125 -6.824219 -5.359375 -6.902344 -5.460938 -6.902344 C -5.554688 -6.902344 -5.632812 -6.824219 -5.632812 -6.730469 L -5.632812 -4.082031 C -5.632812 -3.980469 -5.554688 -3.902344 -5.460938 -3.902344 C -5.359375 -3.902344 -5.28125 -3.980469 -5.28125 -4.082031 L -5.28125 -4.671875 L -2.40625 -4.671875 L -2.40625 -2.5 L -5.28125 -2.5 L -5.28125 -3.054688 C -5.28125 -3.148438 -5.359375 -3.226562 -5.460938 -3.226562 C -5.554688 -3.226562 -5.632812 -3.148438 -5.632812 -3.054688 L -5.632812 -0.414062 C -5.632812 -0.3125 -5.554688 -0.234375 -5.460938 -0.234375 C -5.359375 -0.234375 -5.28125 -0.3125 -5.28125 -0.414062 L -5.28125 -1.003906 L -0.351562 -1.003906 L -0.351562 -0.414062 C -0.351562 -0.3125 -0.273438 -0.234375 -0.179688 -0.234375 C -0.078125 -0.234375 0 -0.3125 0 -0.414062 L 0 -3.054688 C 0 -3.148438 -0.078125 -3.226562 -0.179688 -3.226562 C -0.273438 -3.226562 -0.351562 -3.148438 -0.351562 -3.054688 L -0.351562 -2.5 L -2.054688 -2.5 L -2.054688 -4.671875 L -0.351562 -4.671875 L -0.351562 -4.082031 C -0.351562 -3.980469 -0.273438 -3.902344 -0.179688 -3.902344 C -0.078125 -3.902344 0 -3.980469 0 -4.082031 L 0 -6.730469 C 0 -6.824219 -0.078125 -6.902344 -0.179688 -6.902344 C -0.273438 -6.902344 -0.351562 -6.824219 -0.351562 -6.730469 Z M -5.28125 -1.355469 L -5.28125 -2.148438 L -2.40625 -2.148438 L -2.40625 -1.355469 Z M -2.40625 -5.023438 L -5.28125 -5.023438 L -5.28125 -5.8125 L -2.40625 -5.8125 Z M -2.054688 -2.148438 L -0.351562 -2.148438 L -0.351562 -1.355469 L -2.054688 -1.355469 Z M -0.351562 -5.8125 L -0.351562 -5.023438 L -2.054688 -5.023438 L -2.054688 -5.8125 Z M -0.351562 -5.8125 "/></g></g></g><g fill="#000000" fill-opacity="1"><g transform="translate(96.180192, 32.732946)"><g><path d="M -5.484375 -5.25 C -5.578125 -5.25 -5.65625 -5.171875 -5.65625 -5.078125 L -5.65625 -0.40625 C -5.65625 -0.3125 -5.578125 -0.234375 -5.484375 -0.234375 C -5.390625 -0.234375 -5.3125 -0.3125 -5.3125 -0.40625 L -5.3125 -0.980469 L -0.34375 -0.980469 L -0.34375 -0.40625 C -0.34375 -0.3125 -0.265625 -0.234375 -0.171875 -0.234375 C -0.078125 -0.234375 0 -0.3125 0 -0.40625 L 0 -5.078125 C 0 -5.171875 -0.078125 -5.25 -0.171875 -5.25 L -0.886719 -5.25 C -0.980469 -5.25 -1.058594 -5.171875 -1.058594 -5.078125 C -1.058594 -4.984375 -0.980469 -4.90625 -0.886719 -4.90625 L -0.34375 -4.90625 L -0.34375 -2.484375 L -2.046875 -2.484375 L -2.046875 -3.613281 L -1.503906 -3.613281 C -1.410156 -3.613281 -1.332031 -3.691406 -1.332031 -3.785156 C -1.332031 -3.878906 -1.410156 -3.957031 -1.503906 -3.957031 L -2.945312 -3.957031 C -3.039062 -3.957031 -3.117188 -3.878906 -3.117188 -3.785156 C -3.117188 -3.691406 -3.039062 -3.613281 -2.945312 -3.613281 L -2.390625 -3.613281 L -2.390625 -2.484375 L -5.3125 -2.484375 L -5.3125 -4.90625 L -4.773438 -4.90625 C -4.679688 -4.90625 -4.601562 -4.984375 -4.601562 -5.078125 C -4.601562 -5.171875 -4.679688 -5.25 -4.773438 -5.25 Z M -5.3125 -2.140625 L -2.390625 -2.140625 L -2.390625 -1.324219 L -5.3125 -1.324219 Z M -2.046875 -2.140625 L -0.34375 -2.140625 L -0.34375 -1.324219 L -2.046875 -1.324219 Z M -2.046875 -2.140625 "/></g></g></g></svg>